<?xml version="1.0"?><svg xmlns="http://www.w3.org/2000/svg" style="overflow: visible; width: 100%; height: 100%; position: absolute; left: 0px; top: 0px; transition: all 350ms ease-in-out 0s; backface-visibility: hidden; opacity: 1; transform: rotate3d(1, 1, 0, 0deg);" xmlns:xlink="http://www.w3.org/1999/xlink" viewBox="-26.45 -28.00 386.16 158.29" width="798.4031936127744px" height="2576.9517214854286px"><g transform="translate(0 0)"><g transform="translate(0 0)"><g transform="translate(122.64378832017796 0)"><g transform="translate(0 0)"><g transform="scale(1.4933333333333334 1.4933333333333334) translate(-2.75 69.25)"><g transform="translate(0.000,0)" fill="#404040" stroke="#404040" stroke-width="0"><path d="M20.85,-35.85L54.85,-0.75L42.90,-0.75L13.55,-31.10L11.55,-31.10L11.55,-0.75L2.75,-0.75L2.75,-65.50L11.55,-68.90L11.55,-39.30L13.75,-39.30L41.55,-69.25L52.70,-69.25L20.85,-35.85Z   " class=""></path></g><g transform="translate(58.600,0)" fill="#404040" stroke="#404040" stroke-width="0"><path d="M3.10,-0.90L29.00,-69.10L41.55,-69.10L69.50,-0.90L59.90,-0.90L52.95,-16.90L19.25,-16.90L12.25,-0.90L3.10,-0.90Z   M22.45,-25.20L49.80,-25.20L35.05,-60.50L22.45,-25.20Z   " class=""></path></g><g transform="translate(131.200,0)" fill="#404040" stroke="#404040" stroke-width="0"><path d="M2.75,-0.75L2.75,-65.50L11.55,-68.90L11.55,-0.75L2.75,-0.75Z   " class=""></path></g></g></g></g><g transform="translate(0 0)"><g><g fill="#a3cef1" stroke="none" x="0" y="0" transform="translate(-2.1808815471831107, -2.1808815471831178) scale(1.065468847478775)"><style type="text/css">.st_kilq17b6_1 {
  fill-opacity: 1;
  fill-rule: nonzero;
  stroke: none;
  stroke-dasharray: none;
  stroke-dashoffset: 0px;
  stroke-linecap: butt;
  stroke-linejoin: miter;
  stroke-miterlimit: 4;
  stroke-opacity: 1;
  stroke-width: 1px;

}
</style><style class="darkreader darkreader--sync" media="screen"></style><path d="M96.5,50C96.5,50,96.5,50,96.5,50c0-6.4-1.3-12.5-3.6-18c0,0,0-0.1,0-0.1c0,0,0-0.1,0-0.1c-2.3-5.4-5.6-10.3-9.7-14.4  c0,0-0.1-0.1-0.1-0.1c0,0-0.1-0.1-0.1-0.1c0,0-0.1-0.1-0.1-0.1c0,0-0.1-0.1-0.1-0.1c-4.3-4.2-9.4-7.6-15-10c-0.1,0-0.1-0.1-0.2-0.1  c-0.1,0-0.1,0-0.2,0C61.9,4.7,56.1,3.5,50,3.5c0,0,0,0,0,0c0,0,0,0,0,0c0,0,0,0,0,0c0,0,0,0,0,0c-6.4,0-12.5,1.3-18,3.6  c0,0-0.1,0-0.1,0c0,0-0.1,0-0.1,0c-5.4,2.3-10.3,5.6-14.4,9.7c0,0-0.1,0.1-0.1,0.1c0,0-0.1,0-0.1,0.1c0,0-0.1,0.1-0.1,0.1  c0,0-0.1,0.1-0.1,0.1c-4.2,4.3-7.6,9.4-10,15c0,0.1-0.1,0.1-0.1,0.2c0,0.1,0,0.1,0,0.2C4.7,38.1,3.5,43.9,3.5,50c0,0,0,0,0,0  c0,0,0,0,0,0c0,0,0,0,0,0c0,0,0,0,0,0c0,6.4,1.3,12.5,3.6,18c0,0,0,0.1,0,0.1c0,0,0,0,0,0.1c2.3,5.4,5.6,10.3,9.7,14.5  c0.1,0.1,0.2,0.2,0.3,0.3c0,0,0,0,0.1,0c0,0,0,0,0.1,0.1c4.3,4.2,9.4,7.6,15,10c0.1,0,0.1,0.1,0.2,0.1c0,0,0.1,0,0.1,0  c5.4,2.2,11.2,3.4,17.3,3.4c0,0,0,0,0,0c0,0,0,0,0,0c0,0,0,0,0,0s0,0,0,0c0,0,0,0,0,0c0,0,0,0,0,0c6.4,0,12.5-1.3,18.1-3.7  c0,0,0.1,0,0.1,0c0,0,0.1,0,0.1,0c5.4-2.3,10.3-5.6,14.4-9.7c0.2-0.1,0.3-0.2,0.4-0.4c4.2-4.3,7.7-9.4,10-15.1c0,0,0-0.1,0.1-0.1  c0-0.1,0-0.1,0-0.2C95.3,61.9,96.5,56.1,96.5,50C96.5,50,96.5,50,96.5,50C96.5,50,96.5,50,96.5,50C96.5,50,96.5,50,96.5,50z   M90.8,65l-9.5-3.7l12-8.4C93.1,57.1,92.2,61.2,90.8,65z M68.3,89.5l-4.1-9.3l14.4,2.6C75.5,85.5,72,87.7,68.3,89.5z M21.4,82.8  l14.5-2.6l-3.7,9.6C28.3,87.9,24.7,85.6,21.4,82.8z M6.6,52.9l12.1,8.4l-9.4,4.2C7.9,61.6,6.9,57.4,6.6,52.9z M9.2,35l9.5,3.7  l-12,8.4C6.9,42.9,7.8,38.8,9.2,35z M31.7,10.5l4.1,9.3l-14.4-2.6C24.5,14.6,28,12.3,31.7,10.5z M78.6,17.2l-14.5,2.6l3.7-9.6  C71.7,12.1,75.3,14.4,78.6,17.2z M93.4,47.1l-12.1-8.4l9.4-4.2C92.1,38.4,93.1,42.6,93.4,47.1z M50,68.1l-12.8-5.3L31.9,50l5.3-12.8  L50,31.9l12.8,5.3L68.1,50l-5.3,12.8L50,68.1z M29.9,47l-5.5-7.5l9.2-1.4L29.9,47z M33.7,62l-9.2-1.5l5.5-7.5L33.7,62z M70.1,53  l5.5,7.5L66.3,62L70.1,53z M66.3,38l9.2,1.5L70.1,47L66.3,38z M77,36.6l-11.8-1.9L63.4,23L80,20L77,36.6z M60.6,24.5l1.4,9.2l-9-3.7  L60.6,24.5z M50,28.5l-9.6-7L50,7.6l9.6,13.8L50,28.5z M47,29.9l-9,3.7l1.5-9.2L47,29.9z M34.8,34.8L23,36.6L20,20l16.6,3L34.8,34.8  z M21.5,40.4l7,9.6l-7,9.6L7.6,50L21.5,40.4z M23,63.4l11.8,1.9L36.6,77L20,80L23,63.4z M39.4,75.5L38,66.3l9,3.7L39.4,75.5z   M50,71.5l9.6,7L50,92.4l-9.6-13.8L50,71.5z M53,70.1l9-3.7l-1.5,9.2L53,70.1z M65.2,65.2L77,63.4L80,80l-16.6-3L65.2,65.2z   M78.5,59.6l-7-9.6l7-9.6L92.4,50L78.5,59.6z M80.2,35.8l2.6-14.4c2.7,3.1,4.9,6.5,6.7,10.3L80.2,35.8z M61.3,18.6l-8.4-12  c4.2,0.3,8.2,1.2,12,2.5L61.3,18.6z M38.6,18.7l-4.2-9.4c4-1.5,8.2-2.5,12.6-2.8L38.6,18.7z M17.2,21.4l2.6,14.5l-9.6-3.7  C12.1,28.3,14.4,24.7,17.2,21.4z M19.8,64.2l-2.6,14.4c-2.7-3.1-4.9-6.5-6.7-10.3L19.8,64.2z M38.7,81.4l8.4,12  c-4.2-0.3-8.2-1.2-12-2.5L38.7,81.4z M61.4,81.3l4.2,9.4c-4,1.5-8.2,2.5-12.6,2.8L61.4,81.3z M82.8,78.6l-2.6-14.5l9.6,3.7  C87.9,71.7,85.6,75.3,82.8,78.6z" fill-rule="nonzero" class="st_kilq17b6_1"></path></g></g></g></g></g></svg>